{"title":"Formula 1 2013 - Australia - BBC (Setanta) Full Race","uid":8266356,"size":1148348416,"categoryP":"video","categoryS":"tv_shows","magnet":"?xt=urn:btih:95b6c257f278a28d1fb458581522d40718a7e7b2&amp;dn=Formula+1+2013+-+Australia+-+BBC+%28Setanta%29+Full+Race&amp;tr=udp%3A%2F%2Ftracker.openbittorrent.com%3A80&amp;tr=udp%3A%2F%2Fopen.demonii.com%3A1337&amp;tr=udp%3A%2F%2Ftracker.coppersurfer.tk%3A6969&amp;tr=udp%3A%2F%2Fexodus.desync.com%3A6969","seeders":1,"leechers":0,"uploader":"IAMH67","files":1,"time":1363519498,"description":"Race Australia. All the action from the main race of the Australian Formula 1 Grand Prix in Albert Park, Melbourne...With Ben Edwards as commentator alongside co-commentator David Coulthard from the BBC.\n\nTechnical Info:\n\nVideo\nID                               : 0\nFormat                           : MPEG-4 Visual\nFormat profile                   : Advanced Simple@L5\nFormat settings, BVOP            : Yes\nFormat settings, QPel            : No\nFormat settings, GMC             : No warppoints\nFormat settings, Matrix          : Default (H.263)\nMuxing mode                      : Packed bitstream\nCodec ID                         : XVID\nCodec ID/Hint                    : XviD\nDuration                         : 1h 54mn\nBit rate                         : 1 202 Kbps\nWidth                            : 624 pixels\nHeight                           : 336 pixels\nDisplay aspect ratio             : 1.857\nFrame rate                       : 25.000 fps\nResolution                       : 8 bits\nColorimetry                      : 4:2:0\nScan type                        : Progressive\nBits/(Pixel*Frame)               : 0.229\nStream size                      : 983 MiB (90%)\nWriting library                  : XviD 1.2.1 (UTC 2008-12-04)\n\nAudio\nID                               : 1\nFormat                           : MPEG Audio\nFormat version                   : Version 1\nFormat profile                   : Layer 3\nMode                             : Joint stereo\nFormat_Settings_ModeExtension    : MS Stereo\nCodec ID                         : 55\nCodec ID/Hint                    : MP3\nDuration                         : 1h 54mn\nBit rate mode                    : Constant\nBit rate                         : 128 Kbps\nChannel(s)                       : 2 channels\nSampling rate                    : 48.0 KHz\nStream size                      : 105 MiB (10%)\nAlignment                        : Aligned on interleaves\nInterleave, duration             : 40 ms (1.00 video frame)\nInterleave, preload duration     : 480 ms\n\n\n\nRACE ONLY. No chit chat, NO walks.. start to podium.. ONLY.","torrent":{"xt":"urn:btih:95b6c257f278a28d1fb458581522d40718a7e7b2","amp;dn":"Formula+1+2013+-+Australia+-+BBC+%28Setanta%29+Full+Race","amp;tr":["udp%3A%2F%2Ftracker.openbittorrent.com%3A80","udp%3A%2F%2Fopen.demonii.com%3A1337","udp%3A%2F%2Ftracker.coppersurfer.tk%3A6969","udp%3A%2F%2Fexodus.desync.com%3A6969"],"infoHash":"95b6c257f278a28d1fb458581522d40718a7e7b2","infoHashBuffer":{"type":"Buffer","data":[149,182,194,87,242,120,162,141,31,180,88,88,21,34,212,7,24,167,231,178]},"announce":[],"urlList":[]}}